<svg xmlns="http://www.w3.org/2000/svg" viewBox="0 0 32 32">
  <defs>
    <linearGradient id="book-grad" x1="0%" y1="0%" x2="100%" y2="100%">
      <stop offset="0%" stop-color="#4f46e5" />
      <stop offset="100%" stop-color="#06b6d4" />
    </linearGradient>
  </defs>
  <rect width="32" height="32" rx="8" fill="url(#book-grad)" />
  <path d="M9 7h11c1.1 0 2 .9 2 2v14c0 1.1-.9 2-2 2H9c-.55 0-1-.45-1-1V8c0-.55.45-1 1-1z" fill="#ffffff" />
  <path d="M8 21h12c.55 0 1 .45 1 1s-.45 1-1 1H8c-.55 0-1-.45-1-1s.45-1 1-1z" fill="#e0e7ff" />
  <rect x="11" y="11" width="7" height="2" rx="1" fill="#4f46e5" fill-opacity="0.8" />
  <rect x="11" y="15" width="7" height="2" rx="1" fill="#4f46e5" fill-opacity="0.8" />
</svg>
